<?xml version="1.0" standalone="no"?>
<!DOCTYPE svg PUBLIC "-//W3C//DTD SVG 20010904//EN"
 "http://www.w3.org/TR/2001/REC-SVG-20010904/DTD/svg10.dtd">
<svg version="1.0" xmlns="http://www.w3.org/2000/svg"
 width="2000.000000pt" height="1700.000000pt" viewBox="0 0 2000.000000 1700.000000"
 preserveAspectRatio="xMidYMid meet">

<g transform="translate(0.000000,1700.000000) scale(0.100000,-0.100000)"
fill="#000000" stroke="none">
<path d="M17169 15546 c-2 -3 -162 -16 -354 -30 -434 -33 -481 -37 -1060 -91
-258 -25 -823 -74 -1255 -110 -728 -61 -1407 -122 -2310 -210 -201 -19 -552
-53 -780 -75 -654 -63 -642 -61 -703 -111 -42 -35 -69 -91 -91 -187 -18 -80
-18 -100 19 -1687 8 -352 20 -836 25 -1075 6 -239 13 -476 16 -526 9 -123 -5
-175 -75 -282 -83 -126 -298 -422 -771 -1062 -365 -495 -624 -861 -880 -1248
-105 -158 -209 -304 -230 -324 -56 -53 -58 -70 -14 -193 53 -152 88 -197 167
-215 39 -8 838 2 1447 20 415 12 579 23 1265 85 913 84 1284 123 2165 230 450
54 703 83 1210 135 465 48 446 42 484 150 10 27 45 77 87 125 40 44 86 96 103
115 123 138 268 318 951 1180 159 201 346 438 465 589 64 80 187 235 273 344
175 220 177 227 136 317 -33 71 -36 151 -8 240 23 72 24 88 24 370 0 162 -6
484 -12 715 -7 231 -15 890 -18 1465 -4 575 -11 1081 -16 1125 -13 110 -35
169 -70 200 -27 22 -40 25 -108 25 -43 0 -80 -2 -82 -4z m51 -208 c-1 -40 -5
-158 -10 -263 -37 -755 -30 -2172 16 -3172 l6 -143 -43 0 c-24 0 -163 -9 -309
-20 -371 -28 -1659 -128 -2725 -210 -1108 -86 -2143 -160 -2790 -199 -269 -17
-511 -32 -536 -34 l-46 -4 -7 486 c-4 267 -14 700 -22 961 -27 804 4 2051 51
2099 5 5 255 27 1720 155 352 31 791 70 975 86 463 41 1876 165 2835 249 764
67 860 76 878 79 4 1 7 -31 7 -70z m97 -195 c-1 -43 -3 -10 -3 72 0 83 2 118
3 78 2 -40 2 -107 0 -150z m30 -3116 c-1 -111 -2 -17 -2 208 0 226 1 316 2
202 2 -115 2 -299 0 -410z m-150 -401 c-3 -7 -131 -175 -284 -372 -153 -198
-562 -723 -908 -1169 -810 -1044 -875 -1127 -890 -1143 -8 -9 -104 -21 -301
-37 -480 -40 -699 -54 -1424 -90 -1164 -59 -1649 -94 -3060 -223 l-625 -57
-420 1 c-231 0 -428 3 -438 7 -15 5 8 39 130 194 81 104 191 244 245 313 53
69 145 186 203 260 58 74 158 203 222 285 64 83 139 175 166 205 65 71 87 108
87 145 0 38 7 48 47 69 45 22 98 77 141 145 19 31 92 133 162 226 312 421 447
609 473 657 37 71 61 94 110 107 23 6 152 18 287 26 328 21 1679 127 2165 170
671 60 966 84 1430 115 248 17 772 55 1165 85 393 30 850 64 1015 74 165 10
302 19 304 20 2 0 1 -5 -2 -13z m141 -207 l32 -56 -291 -349 c-338 -405 -499
-610 -999 -1269 -200 -264 -396 -520 -435 -570 -73 -92 -284 -335 -290 -335
-10 0 -47 99 -48 127 -1 46 52 118 348 469 268 317 917 1098 1042 1254 141
175 243 315 468 638 92 133 122 169 131 159 6 -6 25 -37 42 -68z m-2133 -2640
c0 -9 -13 -15 -35 -17 -19 -2 -318 -34 -665 -73 -2391 -264 -2893 -313 -3760
-363 -231 -14 -532 -30 -670 -37 -283 -13 -1116 -18 -1157 -6 -26 7 -47 36
-62 82 -6 20 -1 20 317 21 516 2 934 24 1762 94 469 39 1508 122 2020 160 293
21 455 32 1320 85 674 42 751 49 830 74 50 16 63 17 80 6 11 -7 20 -19 20 -26z"/>
<path d="M16685 15064 c-11 -2 -193 -20 -405 -39 -337 -30 -641 -56 -1740
-145 -572 -46 -903 -72 -1365 -105 -1014 -73 -1844 -139 -2017 -161 l-47 -6
-31 -76 -32 -76 22 -45 c37 -76 36 -63 70 -1356 14 -514 47 -1189 60 -1237 6
-21 22 -51 36 -67 40 -47 74 -54 231 -42 939 73 1450 107 3053 206 671 41
2262 152 2266 158 10 14 47 747 55 1077 15 698 -15 1813 -51 1880 -18 34 -48
44 -105 34z m29 -391 c9 -251 25 -1424 26 -1848 0 -306 -17 -636 -35 -653 -2
-3 -906 -67 -2007 -143 -2660 -183 -3016 -208 -3196 -221 -84 -6 -155 -8 -158
-5 -7 6 -11 115 -64 1472 -23 572 -40 1058 -38 1080 l3 40 60 7 c579 70 2063
217 2905 288 860 72 2195 165 2416 169 l81 1 7 -187z"/>
<path d="M15120 13953 c-714 -14 -1237 -43 -2575 -143 -349 -26 -548 -45 -583
-56 -73 -21 -121 -72 -176 -186 -69 -144 -81 -197 -81 -383 0 -175 8 -214 69
-329 59 -114 149 -183 267 -204 70 -13 337 -1 737 33 848 73 1064 92 1882 170
371 35 800 76 953 90 154 14 293 32 311 39 33 14 169 156 196 204 23 42 26
260 5 364 -24 122 -90 252 -159 315 -91 83 -108 87 -426 88 -151 1 -340 0
-420 -2z m675 -138 c31 -13 64 -38 83 -63 39 -48 116 -210 133 -277 25 -99
-13 -206 -106 -300 -96 -95 -197 -126 -485 -145 -775 -52 -2053 -161 -3058
-261 -112 -11 -220 -17 -240 -13 -85 15 -135 62 -186 174 -66 145 -74 288 -25
470 49 184 86 234 187 253 35 7 1463 107 1877 132 138 8 471 24 740 35 270 11
506 22 525 23 19 1 141 1 270 -1 218 -4 239 -6 285 -27z"/>
<path d="M14734 13607 c-25 -64 -45 -97 -57 -101 -35 -9 -75 16 -121 75 -25
32 -53 59 -61 59 -39 0 -58 -186 -30 -295 24 -92 73 -116 96 -47 25 78 64 109
121 97 22 -5 30 -15 40 -47 13 -44 68 -94 92 -85 8 3 23 21 32 39 14 27 16 50
10 153 -7 122 -19 165 -64 224 l-19 23 -39 -95z"/>
<path d="M15186 13666 c-51 -19 -92 -60 -112 -112 -15 -39 -15 -46 0 -92 22
-64 74 -118 128 -133 23 -6 77 -9 119 -7 61 2 84 8 108 26 39 28 45 28 129 -8
39 -16 85 -30 103 -30 34 0 99 20 99 30 -1 3 -22 21 -47 40 -186 140 -193 147
-219 198 -34 69 -77 91 -187 98 -57 3 -94 0 -121 -10z m171 -129 c8 -8 -6 -43
-28 -71 -34 -44 -95 -32 -122 24 -15 28 -14 31 6 46 16 11 37 14 80 11 32 -3
61 -8 64 -10z"/>
<path d="M14135 13635 c-78 -42 -121 -115 -131 -222 -11 -123 24 -199 110
-239 122 -57 296 -2 296 93 0 21 -4 24 -22 20 -60 -14 -159 -18 -190 -8 -47
15 -72 61 -64 113 8 52 26 85 82 154 45 55 46 57 28 75 -27 27 -73 33 -109 14z"/>
<path d="M13610 13596 c-19 -7 -47 -18 -62 -24 l-28 -12 0 -120 c0 -94 4 -131
19 -170 19 -50 65 -120 79 -120 4 0 20 25 36 55 33 64 33 64 132 9 37 -21 75
-34 97 -34 69 0 70 4 26 92 l-40 80 21 50 c12 28 19 60 16 73 -17 67 -120 135
-206 134 -30 0 -71 -6 -90 -13z m164 -126 c31 -29 -55 -64 -99 -40 -21 11 -45
48 -45 69 0 10 130 -17 144 -29z"/>
<path d="M13112 13513 c-28 -11 -66 -118 -106 -298 -19 -85 -21 -115 -13 -146
7 -28 15 -39 29 -39 28 0 65 42 78 89 8 30 20 48 43 61 53 33 85 26 157 -31
44 -35 87 -52 96 -38 3 6 3 46 -1 90 -6 70 -12 87 -46 137 -21 31 -64 85 -96
120 -51 54 -63 62 -93 61 -19 0 -41 -3 -48 -6z"/>
<path d="M12250 13438 c-61 -33 -90 -78 -90 -140 0 -65 18 -96 89 -158 51 -45
77 -81 65 -92 -2 -2 -46 1 -99 7 -53 6 -98 8 -100 4 -10 -16 9 -69 32 -91 21
-19 37 -24 107 -26 100 -5 140 11 162 65 14 32 13 38 -6 76 -12 23 -39 65 -59
92 -47 63 -61 88 -61 113 0 24 48 66 107 95 48 23 49 25 29 52 -22 31 -120 33
-176 3z"/>
<path d="M12565 13438 c-27 -21 -27 -24 -22 -97 3 -42 13 -133 22 -203 l17
-126 78 -7 c66 -6 85 -4 123 13 38 17 67 45 67 65 0 3 -39 11 -87 17 -49 7
-92 16 -96 20 -5 4 13 17 40 29 79 35 95 45 110 68 14 21 12 22 -72 49 -61 20
-85 33 -83 43 2 8 50 36 108 62 59 26 105 53 105 60 0 17 -70 27 -196 28 -74
1 -90 -2 -114 -21z"/>
<path d="M13783 15010 c-18 -11 -33 -24 -33 -29 0 -5 -3 -16 -6 -24 -9 -25 32
-57 72 -57 34 0 124 43 124 60 0 12 -91 70 -109 70 -9 0 -31 -9 -48 -20z"/>
<path d="M16510 11489 c-289 -40 -1103 -116 -1545 -144 -196 -12 -265 -33
-323 -100 -34 -38 -62 -95 -62 -126 0 -29 33 -31 195 -15 83 9 229 22 327 30
198 16 256 34 308 92 40 47 53 44 48 -11 l-3 -45 115 0 c123 0 218 -17 170
-30 -14 -4 -74 -10 -135 -14 -201 -13 -214 -21 -353 -217 l-80 -114 36 -7 c21
-4 57 -7 82 -8 60 -1 43 -9 -119 -56 l-134 -38 -19 24 -20 25 24 15 c57 37
116 103 184 207 41 62 74 115 74 118 0 16 -607 -23 -689 -45 -71 -19 -124 -63
-193 -161 -68 -95 -237 -311 -265 -339 -14 -13 -15 -10 -11 37 5 57 13 70 153
263 66 90 115 169 115 183 0 7 -143 -4 -194 -15 -56 -12 -126 -69 -156 -128
-21 -40 -67 -87 -77 -77 -3 4 9 39 26 79 18 40 35 79 38 87 5 11 -17 12 -118
10 -114 -4 -128 -6 -171 -32 -26 -15 -59 -43 -74 -62 -39 -52 -56 -47 -38 12
8 25 12 48 10 50 -1 2 -63 -1 -137 -5 -198 -13 -218 -27 -339 -227 -82 -136
-108 -165 -149 -165 -17 0 -31 3 -31 6 0 3 52 82 115 174 135 198 140 185 -72
170 -105 -7 -157 -16 -213 -36 -70 -24 -79 -25 -152 -14 -54 8 -95 8 -135 1
-32 -6 -116 -15 -188 -22 -71 -6 -144 -17 -162 -24 -39 -17 -129 -125 -172
-207 l-32 -63 148 -5 c140 -5 145 -6 98 -17 -27 -6 -99 -19 -160 -28 -131 -21
-161 -34 -212 -100 -65 -83 -186 -256 -182 -259 5 -5 836 76 1694 163 325 34
700 70 835 81 135 11 356 32 492 45 280 28 508 33 508 12 0 -10 -37 -18 -132
-30 -73 -9 -415 -51 -759 -93 l-626 -77 -31 -96 c-18 -53 -35 -101 -40 -108
-5 -7 -332 -34 -1012 -82 -553 -39 -1022 -73 -1043 -76 l-38 -5 7 81 7 81 -89
-6 c-49 -4 -280 -20 -514 -36 -234 -17 -508 -34 -610 -39 -105 -5 -201 -15
-223 -23 -53 -19 -89 -57 -126 -133 l-31 -67 19 -32 c20 -32 44 -49 89 -61 23
-7 69 -4 652 40 179 14 498 36 710 50 389 26 609 43 1510 115 272 22 727 58
1010 80 283 22 763 61 1065 85 303 25 571 46 598 48 58 5 84 27 98 81 8 31 37
70 121 161 156 171 254 283 509 590 411 494 440 530 469 583 l29 53 -25 10
c-33 12 -33 12 -274 -22z m-1875 -779 c5 -8 -54 -40 -76 -40 -19 0 -8 20 19
34 32 18 49 20 57 6z m-1158 -86 c3 -11 -58 -55 -68 -48 -12 7 11 52 30 57 21
6 34 3 38 -9z m1899 -268 c7 -19 -33 -110 -58 -133 -25 -22 -84 -21 -183 5
l-70 19 75 7 c41 4 92 12 113 18 35 11 97 67 97 88 0 15 20 12 26 -4z m-540
-79 c-15 -36 -91 -127 -107 -127 -10 0 14 70 36 104 16 24 76 69 83 62 2 -2
-3 -20 -12 -39z m-676 -57 c13 -8 10 -17 -15 -65 -17 -30 -33 -55 -37 -55 -14
0 -8 85 8 108 17 24 22 26 44 12z"/>
<path d="M14310 11294 c-548 -44 -762 -65 -793 -78 -19 -7 -43 -27 -54 -42
-27 -40 -106 -185 -102 -188 12 -7 272 13 309 25 29 9 62 30 93 61 26 27 50
48 53 48 3 0 3 -22 -1 -50 l-7 -49 89 5 c155 10 205 33 253 116 17 29 41 66
55 83 37 45 42 11 12 -79 -14 -41 -23 -77 -19 -80 3 -3 38 -6 78 -6 98 0 167
26 228 87 42 41 106 135 106 156 0 10 -93 7 -300 -9z"/>
<path d="M13225 11209 c-93 -10 -180 -18 -192 -18 -12 -1 -35 -12 -51 -26 -34
-29 -42 -31 -42 -10 0 29 -36 31 -240 18 -229 -15 -294 -29 -345 -74 -36 -32
-77 -109 -90 -168 l-7 -34 88 7 c327 24 382 30 411 43 18 8 58 42 88 75 58 63
63 61 40 -14 l-14 -48 144 0 c170 0 228 16 295 81 44 43 94 137 88 167 -3 17
-10 17 -173 1z"/>
<path d="M12015 11118 c-600 -40 -677 -47 -708 -65 -21 -13 -49 -51 -89 -123
-79 -142 -85 -137 164 -116 537 47 690 66 732 89 50 28 183 206 163 219 -14 9
-86 8 -262 -4z"/>
<path d="M10798 10952 c-42 -59 -91 -127 -109 -151 l-33 -44 148 7 c175 9 233
24 279 71 33 34 127 192 127 213 0 9 -47 12 -167 12 l-168 0 -77 -108z"/>
<path d="M11670 10764 c-74 -7 -214 -20 -310 -29 -96 -8 -199 -23 -229 -32
-80 -25 -151 -95 -190 -186 -28 -68 -29 -72 -10 -75 10 -2 157 6 327 17 586
40 580 39 638 102 31 34 154 205 154 214 0 10 -246 2 -380 -11z"/>
<path d="M10518 10568 l-86 -123 41 -13 c23 -7 84 -16 134 -19 104 -7 158 7
215 55 30 26 148 195 148 213 0 5 -82 9 -183 9 l-182 0 -87 -122z"/>
<path d="M11455 10419 c-126 -9 -260 -22 -297 -28 -37 -6 -109 -11 -161 -11
-106 0 -177 -17 -214 -52 -23 -22 -25 -22 -37 -5 -12 15 -33 17 -190 17 -98 0
-185 -4 -195 -9 -36 -20 -211 -275 -211 -309 0 -18 77 -15 635 24 603 41 745
54 779 68 41 17 64 46 166 204 l80 122 -63 -1 c-34 -1 -165 -10 -292 -20z"/>
<path d="M13465 10190 c-4 -6 12 -10 39 -10 25 0 46 5 46 10 0 6 -18 10 -39
10 -22 0 -43 -4 -46 -10z"/>
<path d="M13282 9680 c-77 -27 -106 -31 -335 -44 -239 -15 -717 -38 -1057 -51
-200 -8 -426 -29 -670 -63 -193 -27 -195 -27 -198 -52 -11 -110 -44 -198 -140
-367 -65 -116 -94 -188 -107 -262 l-7 -43 528 5 c516 5 718 15 1104 52 198 20
979 114 1005 121 40 12 86 56 111 107 15 29 56 99 92 156 53 85 182 339 205
403 9 26 -20 30 -166 23 -129 -7 -133 -6 -180 19 -60 32 -81 32 -185 -4z m359
-126 c6 -4 -79 -193 -96 -212 -4 -5 -160 30 -169 38 -10 10 19 102 46 147 10
17 27 34 36 37 20 6 171 -2 183 -10z m-395 -66 c-18 -40 -72 -157 -121 -260
-83 -178 -89 -188 -119 -193 -17 -2 -256 -20 -531 -40 -275 -19 -741 -53
-1035 -74 -294 -22 -537 -37 -540 -34 -13 13 159 300 215 358 96 99 207 135
470 154 248 19 794 69 1235 115 228 24 425 44 437 45 22 1 22 0 -11 -71z m272
-220 c-3 -7 -20 -54 -37 -104 l-33 -92 -61 -6 c-152 -14 -249 -18 -246 -10 2
5 38 57 79 117 l74 107 114 0 c87 0 113 -3 110 -12z"/>
<path d="M4241 15414 c-50 -42 -115 -150 -194 -324 -41 -91 -141 -304 -222
-475 -272 -573 -311 -661 -775 -1775 -339 -815 -429 -1033 -739 -1810 -299
-745 -294 -731 -293 -812 0 -37 3 -72 7 -78 4 -7 27 -20 50 -30 79 -34 92 -81
76 -262 -13 -139 -31 -214 -67 -275 -51 -88 -94 -204 -94 -252 0 -56 36 -115
92 -149 46 -29 167 -88 229 -112 169 -67 771 -229 1809 -486 1002 -249 1151
-288 1580 -409 162 -46 342 -95 400 -110 69 -17 125 -38 164 -62 l58 -36 72
13 c87 15 131 34 227 96 119 77 213 180 294 325 38 68 89 163 113 212 36 75
232 560 422 1047 224 574 355 891 498 1201 140 303 196 443 263 652 89 282
116 357 184 517 80 186 127 328 169 515 55 241 103 378 224 640 114 248 158
424 149 605 -8 185 -52 270 -232 445 -74 73 -121 107 -246 182 -266 158 -281
164 -779 292 -212 55 -481 127 -599 160 -208 59 -687 173 -1276 305 -555 124
-707 151 -1130 201 -173 21 -232 32 -274 51 -71 32 -121 31 -160 -2z m439
-183 c445 -72 836 -154 1465 -305 473 -114 662 -163 1310 -337 204 -55 460
-124 570 -154 110 -30 221 -59 246 -65 43 -11 47 -14 53 -49 6 -40 -8 -88 -79
-271 -20 -52 -86 -240 -146 -418 -133 -393 -225 -627 -362 -922 -123 -265
-191 -422 -328 -763 -56 -139 -166 -399 -245 -578 -79 -179 -195 -460 -257
-625 -63 -164 -194 -492 -292 -729 -291 -704 -321 -777 -344 -846 -32 -98 -31
-98 -366 -4 -223 62 -395 116 -885 276 -444 146 -783 250 -960 294 -194 49
-338 89 -495 136 -143 42 -346 94 -668 169 -203 48 -705 178 -718 186 -25 15
197 580 476 1209 73 165 219 515 324 778 190 475 266 653 461 1092 116 261
157 355 264 613 98 235 135 316 323 717 86 182 180 390 209 464 66 164 76 181
112 181 15 0 164 -22 332 -49z m3850 -1045 c0 -37 -172 -495 -235 -626 -41
-85 -97 -213 -124 -284 -43 -108 -51 -140 -51 -195 -1 -39 -8 -87 -19 -116
-40 -107 -90 -207 -113 -223 -38 -26 -47 -44 -48 -91 0 -34 -28 -108 -126
-330 -70 -157 -151 -347 -181 -421 -31 -74 -118 -279 -195 -455 -151 -345
-186 -431 -254 -628 -78 -225 -92 -249 -183 -314 -3 -2 1 -9 7 -15 25 -25 11
-76 -58 -214 -48 -93 -89 -195 -125 -309 -30 -94 -62 -180 -70 -191 -8 -12
-28 -27 -44 -34 -35 -14 -47 -41 -32 -69 22 -39 8 -80 -98 -301 l-108 -225
-32 2 c-36 1 -36 4 -16 -93 4 -20 3 -34 -4 -39 -12 -7 -98 62 -100 79 -1 5 53
109 119 231 145 270 180 346 355 780 75 187 192 473 260 635 117 280 164 389
373 856 259 579 494 1164 775 1934 19 52 69 188 111 302 41 114 85 244 96 288
11 44 25 91 30 105 l10 25 40 -26 c22 -15 40 -32 40 -38z m149 -131 c74 -71
112 -147 119 -237 3 -38 1 -68 -4 -67 -5 0 -28 27 -52 60 -45 64 -83 92 -147
111 -22 6 -42 13 -43 14 -7 5 52 174 61 174 5 0 34 -25 66 -55z m-34 -384
c106 -106 135 -140 135 -161 0 -36 -21 -102 -72 -232 l-42 -108 -16 43 c-55
142 -113 222 -196 269 -60 33 -65 50 -43 133 15 55 81 196 90 193 5 -2 69 -63
144 -137z m-164 -481 c57 -67 113 -137 123 -156 18 -34 18 -38 2 -97 -19 -70
-105 -267 -116 -267 -4 0 -8 27 -9 60 -5 131 -45 223 -155 352 l-66 77 41 85
c35 73 44 84 59 76 10 -5 64 -64 121 -130z m-294 -207 c32 -41 214 -316 233
-352 25 -50 26 -120 1 -169 -10 -20 -30 -74 -45 -119 -26 -79 -46 -106 -46
-63 0 43 -32 175 -56 228 -33 74 -97 156 -153 195 -25 18 -49 35 -53 38 -8 5
90 259 100 259 2 0 11 -8 19 -17z m-38 -622 c128 -185 141 -208 141 -247 0
-93 -112 -408 -227 -639 -90 -181 -101 -192 -95 -92 9 134 -35 284 -108 377
-16 20 -54 56 -84 79 l-54 42 51 119 c29 66 55 120 58 120 15 0 124 -182 199
-332 l78 -158 7 96 c18 232 -37 435 -133 499 -21 14 -52 27 -70 31 -17 4 -32
9 -32 12 0 3 23 62 51 131 28 69 55 137 60 150 5 13 11 22 13 20 2 -2 67 -96
145 -208z m-368 -861 c62 -96 119 -188 127 -205 27 -52 20 -111 -25 -200 -23
-44 -51 -104 -64 -134 -13 -30 -24 -50 -26 -45 -1 5 -9 54 -17 109 -17 117
-44 192 -91 257 -32 43 -119 121 -146 130 -7 2 10 56 47 146 47 114 60 140 71
130 6 -7 62 -92 124 -188z m-210 -400 c144 -256 152 -273 153 -333 0 -42 -8
-69 -39 -135 -22 -45 -42 -82 -45 -82 -3 0 -11 26 -18 58 -26 125 -100 238
-208 317 -36 26 -63 53 -61 59 3 6 26 62 51 124 26 61 51 124 57 138 5 15 11
25 13 23 2 -2 46 -78 97 -169z m-146 -467 c85 -173 117 -253 117 -287 -1 -17
-41 -123 -91 -236 l-91 -205 7 115 c4 89 2 129 -11 180 -26 102 -80 204 -146
271 -50 51 -58 64 -50 82 4 12 36 81 70 152 l62 130 37 -42 c21 -23 64 -95 96
-160z m-259 -397 c21 -50 68 -151 106 -224 37 -74 68 -138 68 -144 0 -14 -71
-210 -80 -221 -4 -4 -19 42 -33 103 -35 145 -61 197 -156 310 l-79 94 13 35
c7 20 23 61 35 91 12 30 26 66 32 80 l10 25 23 -29 c13 -16 41 -70 61 -120z
m-4406 -331 c482 -120 646 -165 980 -270 220 -68 518 -155 945 -274 298 -82
393 -108 791 -211 373 -97 747 -211 759 -231 4 -6 -2 -8 -17 -4 -356 81 -403
94 -1043 276 -192 55 -595 167 -895 249 -617 168 -1673 455 -1829 496 -97 26
-151 53 -151 75 0 6 8 8 18 5 9 -3 208 -53 442 -111z m4219 35 c31 -43 181
-476 181 -523 0 -15 -21 -83 -47 -150 l-48 -122 -7 110 c-10 163 -31 221 -134
359 l-85 115 40 108 c54 148 52 143 62 143 5 0 22 -18 38 -40z m-4472 -111
c87 -22 248 -65 358 -94 256 -69 1359 -358 1795 -470 184 -48 371 -101 415
-120 105 -43 258 -92 470 -150 94 -26 231 -67 306 -91 75 -24 190 -57 255 -74
225 -59 224 -59 235 -87 5 -14 8 -28 6 -30 -4 -3 -275 69 -497 132 -47 13
-222 63 -390 110 -168 48 -386 111 -485 140 -384 115 -835 241 -1565 439 -234
63 -499 135 -590 159 -91 25 -233 64 -317 86 -192 52 -204 56 -197 76 9 22 25
20 201 -26z m-86 -113 c140 -42 293 -84 649 -176 552 -143 1235 -329 1810
-490 140 -40 284 -80 320 -90 95 -26 283 -82 455 -135 158 -49 558 -195 552
-202 -6 -6 -270 52 -532 117 -277 69 -457 117 -1010 275 -675 192 -1499 414
-2022 546 -175 44 -328 84 -340 89 -15 6 -23 18 -23 32 0 32 11 68 20 68 4 0
59 -15 121 -34z m30 -185 c241 -65 833 -221 1389 -366 245 -64 617 -163 826
-220 210 -57 541 -145 735 -195 547 -141 875 -229 932 -252 31 -12 37 -38 8
-38 -72 0 -1841 445 -2386 600 -235 67 -361 100 -970 255 -362 92 -678 180
-722 200 -18 8 -33 21 -33 28 0 13 19 37 30 37 3 0 89 -22 191 -49z m4330 -13
c11 -13 32 -48 48 -78 26 -49 43 -101 98 -287 9 -29 28 -63 45 -80 l29 -28 19
25 c11 14 20 20 20 13 0 -13 -86 -256 -124 -348 l-24 -59 1 164 c1 156 0 169
-26 243 -31 90 -78 168 -142 236 l-45 48 37 86 c21 48 39 87 41 87 2 0 13 -10
23 -22z m-3911 -229 c768 -208 830 -226 830 -240 0 -6 -8 -8 -17 -5 -67 21
-431 111 -773 192 -698 164 -744 175 -748 178 -6 7 22 56 32 56 5 0 310 -81
676 -181z m-310 -79 c223 -55 619 -152 880 -216 733 -179 854 -211 1655 -441
650 -186 1155 -332 1174 -339 20 -7 -15 -31 -55 -40 -37 -7 -14 -13 -1694 448
-322 88 -951 252 -1399 363 -547 137 -831 213 -866 231 -50 25 -130 94 -109
94 5 0 191 -45 414 -100z m4108 -92 c36 -71 67 -156 100 -273 46 -162 50 -170
78 -180 16 -5 30 -10 32 -11 1 -1 -31 -64 -72 -140 -68 -127 -132 -222 -142
-211 -3 2 0 26 6 52 6 26 15 93 20 148 19 192 -17 354 -110 499 l-50 80 37 69
c21 38 41 69 44 69 3 0 29 -46 57 -102z m-2853 -99 c7 -7 1 -8 -20 -3 -46 11
-67 26 -25 19 19 -3 39 -10 45 -16z m2715 -91 c22 -34 52 -98 67 -142 24 -73
27 -96 27 -226 1 -162 -12 -209 -81 -319 -65 -101 -189 -203 -229 -187 -16 7
-14 10 20 28 209 108 291 503 162 775 -20 41 -36 83 -36 92 0 15 18 41 27 41
2 0 21 -28 43 -62z m-2277 -25 c-7 -2 -21 -2 -30 0 -10 3 -4 5 12 5 17 0 24
-2 18 -5z m298 -73 c74 -17 211 -50 304 -75 94 -24 260 -67 370 -95 496 -128
1114 -296 1124 -305 2 -3 -3 -22 -11 -42 -12 -31 -19 -38 -39 -35 -13 1 -118
36 -234 76 -334 118 -575 190 -1325 400 -188 52 -351 104 -334 105 7 1 72 -13
145 -29z"/>
<path d="M4613 14708 c-22 -26 -79 -116 -208 -327 -95 -157 -113 -211 -77
-230 30 -16 51 6 201 217 l130 182 24 -32 c13 -18 34 -50 46 -70 26 -44 86
-98 108 -98 9 0 72 30 140 66 69 36 126 64 127 62 2 -1 -17 -95 -41 -206 -26
-117 -41 -208 -36 -213 17 -17 74 30 98 84 33 72 135 402 135 437 0 31 -39 70
-70 70 -10 0 -81 -31 -159 -70 -78 -38 -147 -70 -154 -70 -7 0 -33 33 -59 73
-72 110 -110 147 -151 147 -22 0 -40 -8 -54 -22z"/>
<path d="M5743 14511 c-32 -27 -145 -139 -250 -250 -197 -205 -211 -227 -184
-269 13 -21 64 5 151 77 41 34 85 64 98 68 23 5 183 -23 214 -39 10 -5 19 -26
23 -56 9 -66 23 -108 42 -123 24 -21 57 26 84 122 31 111 35 344 6 425 -38
110 -90 123 -184 45z m47 -206 l0 -65 -34 0 c-18 0 -47 3 -64 6 l-31 6 51 59
c67 77 78 77 78 -6z"/>
<path d="M6253 14410 c-65 -39 -33 -94 72 -126 33 -10 62 -19 64 -20 2 -2 -11
-38 -29 -81 -45 -108 -69 -196 -76 -278 -6 -60 -4 -73 13 -94 21 -25 50 -25
86 1 21 16 58 120 102 291 19 71 36 131 38 133 2 2 38 -1 79 -7 41 -7 86 -9
100 -6 42 11 78 46 78 76 0 57 -61 85 -248 111 -178 26 -238 25 -279 0z"/>
<path d="M6982 14259 c-19 -20 -94 -210 -126 -318 -9 -30 -16 -72 -16 -93 0
-45 24 -108 41 -108 24 0 78 72 104 140 21 55 31 70 44 66 9 -3 70 -17 136
-31 158 -33 147 -28 131 -67 -15 -35 -20 -91 -18 -175 2 -45 4 -51 21 -46 31
8 99 71 126 117 32 54 135 337 135 370 0 33 -31 49 -80 41 -46 -8 -57 -19
-107 -112 l-39 -71 -141 61 -140 62 5 82 c5 82 5 82 -22 93 -35 13 -32 13 -54
-11z"/>
<path d="M4174 13531 c-48 -22 -87 -69 -109 -130 -22 -63 -21 -65 30 -58 25 4
45 3 45 -1 0 -5 -60 -130 -134 -280 -111 -224 -139 -272 -158 -276 -13 -2 -60
-9 -105 -15 -101 -13 -120 -22 -131 -64 l-8 -32 93 -6 c51 -3 95 -8 98 -10 3
-3 -38 -106 -91 -230 -52 -123 -120 -285 -151 -359 -31 -74 -59 -139 -63 -143
-4 -5 -54 3 -110 17 -111 28 -160 32 -191 16 -46 -25 -12 -77 76 -114 33 -13
86 -36 117 -50 l57 -25 -49 -146 c-27 -81 -59 -184 -70 -230 -21 -85 -24 -174
-5 -177 19 -3 83 125 159 315 42 106 80 197 84 204 5 9 151 -22 551 -117 298
-70 545 -131 548 -134 3 -2 -9 -52 -26 -109 -48 -162 -45 -164 73 -24 l88 104
216 -44 c404 -81 720 -155 962 -224 131 -38 432 -139 442 -148 4 -4 3 -23 -3
-44 -21 -76 19 -96 138 -71 112 23 143 38 143 68 0 20 -16 36 -82 81 -75 52
-83 55 -95 39 -11 -15 -33 -10 -279 75 -147 50 -270 94 -273 97 -3 3 4 23 17
44 29 51 28 59 -3 30 -14 -13 -25 -32 -25 -43 0 -17 -5 -18 -37 -13 -34 6
-882 212 -908 220 -5 2 29 22 77 44 118 55 230 129 433 287 208 162 277 206
380 241 70 24 96 28 205 28 145 1 185 -6 175 -32 -23 -59 -61 -203 -54 -208 5
-2 41 39 80 93 40 54 73 99 74 101 2 2 27 -4 56 -12 29 -9 54 -16 56 -16 2 0
-1 10 -8 23 -38 74 -149 134 -292 158 -61 10 -97 11 -170 1 -200 -25 -320 -84
-657 -324 -304 -216 -346 -239 -446 -246 -91 -6 -154 13 -245 74 -79 52 -134
111 -159 168 -10 22 -37 124 -59 226 -55 245 -99 341 -210 451 -47 47 -107 93
-158 122 -46 26 -83 50 -83 52 0 14 184 415 190 415 4 0 19 -10 34 -21 15 -12
28 -20 30 -18 2 2 11 19 20 36 23 45 35 330 15 355 -21 27 -68 31 -115 9z
m-175 -942 c118 -67 191 -147 237 -259 13 -33 47 -147 74 -253 54 -208 101
-320 167 -397 22 -26 31 -41 20 -37 -9 3 -207 54 -440 113 -232 58 -427 109
-433 113 -8 4 17 73 75 211 104 247 234 540 240 540 2 0 29 -14 60 -31z"/>
<path d="M3699 13482 c-27 -24 -33 -37 -37 -84 -5 -61 9 -97 52 -137 l25 -24
-45 -52 -45 -53 23 -16 c38 -27 82 -30 130 -8 93 41 162 145 175 262 5 54 4
60 -21 85 -32 32 -43 27 -116 -47 l-52 -53 7 37 c7 43 -13 91 -45 108 -16 8
-25 5 -51 -18z"/>
<path d="M3406 12815 c-108 -64 -125 -120 -43 -140 22 -6 28 -14 33 -46 4 -21
10 -39 15 -39 12 0 99 136 109 170 5 19 5 41 0 56 -12 31 -60 31 -114 -1z"/>
<path d="M4574 12550 c-35 -14 -35 -24 1 -49 40 -27 92 -40 160 -41 73 0 85
12 43 43 -67 52 -148 70 -204 47z"/>
<path d="M5200 12382 c0 -8 57 -32 75 -32 4 0 0 9 -10 20 -18 19 -65 28 -65
12z"/>
<path d="M5675 12259 c-9 -13 -8 -14 38 -32 31 -14 37 -14 37 -2 0 8 -13 21
-30 30 -35 18 -37 18 -45 4z"/>
<path d="M3126 11735 c4 -22 2 -41 -6 -50 -21 -25 -33 -17 -28 18 7 45 1 57
-31 57 -47 0 -66 -67 -34 -120 29 -50 88 -63 146 -33 44 22 56 41 57 86 0 48
-28 77 -75 77 -36 0 -36 0 -29 -35z"/>
<path d="M6048 11627 c-9 -23 -25 -66 -37 -95 -19 -47 -19 -53 -5 -50 9 2 30
22 46 45 23 31 30 52 30 84 -1 59 -15 66 -34 16z"/>
<path d="M4444 11151 c-22 -10 -48 -30 -57 -44 -16 -25 -16 -27 2 -37 11 -5
29 -10 40 -10 15 0 22 -9 27 -37 3 -21 9 -54 13 -72 l7 -35 42 63 c57 85 70
132 48 166 -20 30 -61 32 -122 6z"/>
<path d="M6098 10847 l-53 -43 -37 20 c-75 41 -129 -14 -93 -94 l19 -41 -32
-65 c-18 -35 -32 -67 -32 -71 0 -3 27 -3 60 0 69 6 130 37 202 105 94 88 131
178 90 215 -31 28 -67 20 -124 -26z"/>
<path d="M3216 10746 c-26 -47 -56 -111 -66 -142 -24 -69 -36 -154 -23 -154
24 0 105 105 147 189 51 100 56 103 137 81 33 -9 88 -54 78 -64 -2 -3 -46 -20
-97 -38 l-92 -33 21 -34 20 -34 68 5 c175 13 242 134 134 241 -41 39 -72 49
-209 62 l-71 7 -47 -86z"/>
<path d="M3805 10671 c-42 -19 -96 -73 -208 -203 -74 -86 -104 -143 -86 -164
9 -11 21 -8 67 14 l57 28 98 -16 98 -15 26 -58 c14 -31 29 -57 33 -57 16 0 72
131 83 193 18 107 -14 251 -61 275 -38 20 -68 21 -107 3z m44 -218 c0 -18 -1
-33 -4 -33 -7 0 -89 32 -95 37 -3 3 15 22 40 43 l45 39 6 -27 c4 -15 7 -42 8
-59z"/>
<path d="M4250 10532 c-42 -21 -57 -51 -100 -199 -28 -98 -30 -117 -20 -148 6
-19 15 -35 19 -35 4 0 26 23 48 50 47 58 41 60 117 -39 46 -60 94 -91 140 -91
14 0 26 2 26 5 0 3 -13 35 -30 72 -16 36 -30 69 -30 73 0 4 18 19 40 34 53 35
65 66 51 132 -28 123 -159 197 -261 146z m113 -123 c34 -37 35 -66 1 -81 -21
-10 -31 -9 -58 6 -28 15 -31 21 -28 54 2 20 5 43 8 50 6 20 44 5 77 -29z"/>
<path d="M4672 10438 c-27 -14 -38 -49 -23 -76 6 -11 40 -34 76 -51 36 -17 65
-33 65 -36 0 -2 -13 -41 -30 -87 -16 -45 -30 -97 -30 -114 0 -35 18 -84 31
-84 23 0 78 89 109 177 l36 98 74 -3 75 -3 -66 64 c-36 35 -91 76 -122 91 -63
31 -158 43 -195 24z"/>
<path d="M5535 10185 c-5 -2 -53 -15 -105 -30 -84 -23 -140 -54 -140 -76 0 -4
8 -15 17 -25 14 -14 30 -16 100 -11 94 7 93 8 64 -68 l-19 -50 -81 4 c-69 3
-85 0 -116 -19 -42 -26 -38 -34 35 -74 55 -30 261 -86 317 -86 41 0 121 19
128 30 3 5 -35 30 -84 56 l-90 47 25 66 c66 173 69 187 51 215 -14 21 -25 26
-55 25 -20 0 -41 -2 -47 -4z"/>
<path d="M15675 7380 c-3 -5 -1 -37 4 -71 6 -35 8 -72 5 -84 l-5 -22 -502 -6
c-276 -3 -689 -13 -917 -21 -228 -8 -495 -17 -593 -19 l-179 -4 -9 26 -10 25
-12 -24 c-11 -22 -20 -25 -72 -28 -33 -1 -70 -4 -83 -7 -38 -9 -14 -25 37 -25
27 0 63 -3 80 -6 l32 -7 -6 -161 c-23 -646 -38 -1007 -51 -1236 -9 -146 -19
-359 -22 -475 l-7 -210 -62 -7 c-126 -14 -139 -48 -18 -48 l84 0 -2 -497 c-1
-274 5 -907 13 -1408 8 -500 14 -1016 15 -1145 l0 -235 -61 -5 c-64 -5 -106
-26 -82 -41 7 -4 48 -11 91 -15 71 -6 79 -9 94 -35 21 -36 33 -37 33 -4 0 17
8 28 23 35 22 8 222 20 717 41 265 11 1129 1 1920 -22 388 -12 811 -8 1079 10
85 6 161 6 169 2 9 -5 25 -3 41 5 14 7 71 16 126 20 120 8 103 22 -27 23 -49
1 -88 5 -88 9 0 29 32 42 151 61 70 11 174 36 233 55 118 39 165 62 106 51
-98 -17 -353 -54 -411 -60 l-67 -6 -5 38 c-3 21 -11 174 -18 340 -10 242 -11
417 -1 885 7 321 12 889 12 1264 l0 681 53 7 c28 3 69 6 90 6 20 0 37 5 37 10
0 6 -35 10 -84 10 l-83 0 -7 53 c-8 68 -8 439 1 638 l6 157 76 6 c42 3 142 8
224 12 81 4 147 11 147 15 0 5 -99 9 -220 9 l-220 0 0 68 c0 37 4 155 10 262
5 107 12 351 16 542 l6 347 92 7 c105 8 93 22 -20 23 -58 1 -74 5 -89 21 -16
18 -19 18 -30 4 -10 -15 -85 -17 -746 -22 -404 -3 -782 -2 -841 2 l-106 8 -11
66 c-17 101 -37 142 -56 112z m-551 -239 c15 -6 -2 -16 -75 -45 -52 -21 -127
-49 -167 -62 -96 -32 -211 -91 -314 -160 -257 -175 -502 -393 -652 -581 -76
-94 -278 -417 -310 -495 -8 -19 -43 -154 -76 -299 -34 -145 -67 -282 -73 -304
-12 -39 -12 -37 -15 50 -3 86 8 414 28 800 5 99 12 381 16 627 l7 446 42 6
c22 4 373 9 779 11 406 2 741 6 744 9 7 8 43 6 66 -3z m2302 -108 c13 -215
-23 -914 -55 -1053 l-8 -35 -10 37 c-6 21 -9 55 -6 76 8 56 -14 201 -44 296
-46 147 -170 370 -252 453 -82 84 -283 229 -384 277 -78 38 -88 45 -67 50 34
8 161 11 517 14 l301 2 8 -117z m-1362 66 c131 -15 457 -70 511 -85 78 -22
156 -72 267 -169 156 -136 202 -193 268 -330 74 -153 167 -478 154 -535 l-9
-35 -150 -8 c-154 -8 -1352 10 -1369 20 -10 7 -1 1019 11 1112 l6 54 115 -7
c64 -4 152 -11 196 -17z m-369 -75 c4 -48 4 -238 0 -423 -17 -794 -19 -1100
-10 -1363 l7 -188 -409 0 c-224 0 -709 -5 -1076 -11 -368 -6 -671 -9 -674 -6
-10 11 70 454 98 541 94 288 281 573 574 875 177 182 414 350 669 476 224 110
505 180 737 184 l77 1 7 -86z m589 -1134 c10 -10 -3 -328 -13 -335 -4 -2 -7
24 -7 58 -1 111 -67 215 -166 257 -43 19 -63 21 -115 16 -35 -4 -74 -11 -88
-16 -38 -15 -103 -78 -133 -131 -15 -27 -30 -49 -34 -49 -5 0 -8 50 -8 111 l0
111 278 -7 c152 -4 281 -11 286 -15z m956 -16 c0 -9 -14 -57 -30 -107 -37
-109 -86 -181 -219 -319 -136 -143 -234 -209 -381 -256 -73 -24 -210 -52 -254
-52 l-29 0 7 128 c4 70 11 179 16 242 5 63 9 175 9 248 l1 132 440 0 c397 0
440 -2 440 -16z m143 -386 c3 -222 8 -411 12 -420 7 -17 -18 -18 -446 -18
-249 0 -449 4 -443 8 5 5 45 21 89 37 88 30 272 120 350 170 65 41 111 91 236
250 112 144 154 221 170 313 6 34 14 62 19 62 4 0 10 -181 13 -402z m-1365
300 c12 -16 56 -217 49 -224 -6 -6 -297 13 -304 20 -15 15 129 189 171 206 31
13 72 12 84 -2z m172 -134 c12 -32 24 -72 27 -88 6 -28 5 -29 -27 -23 -18 4
-43 7 -55 7 -19 0 -23 7 -29 51 -4 27 -4 78 0 111 l7 62 27 -31 c15 -17 38
-57 50 -89z m78 -332 l2 -194 -32 7 c-106 21 -277 69 -303 84 -43 25 -132 153
-151 218 -9 30 -14 56 -12 59 5 4 423 22 468 20 l25 -1 3 -193z m-459 -126
c60 -73 137 -126 183 -126 10 0 18 -4 18 -10 0 -6 -53 -10 -140 -10 l-140 0 0
110 c0 62 4 110 9 110 6 0 37 -33 70 -74z m1577 -553 c-4 -208 -14 -553 -22
-768 -18 -436 -15 -1332 6 -1798 7 -142 9 -261 6 -264 -21 -21 -363 -13 -721
18 -295 25 -786 124 -1046 210 -366 121 -586 234 -849 437 -395 305 -700 659
-889 1032 -75 147 -274 643 -301 751 -39 154 -66 687 -36 717 14 13 475 20
1309 21 l857 1 0 -112 c0 -61 3 -108 8 -104 4 4 12 56 17 114 l10 107 265 0
264 0 9 -37 c10 -42 27 -51 27 -15 0 57 0 57 315 60 160 1 400 3 534 5 l244 2
-7 -377z m-3845 -528 c28 -93 63 -201 79 -240 49 -123 256 -568 294 -633 140
-238 508 -623 821 -859 230 -173 439 -283 705 -370 264 -87 759 -206 1010
-242 196 -29 516 -47 695 -41 166 6 215 2 215 -19 0 -9 -631 -32 -1071 -38
-270 -4 -386 -1 -685 19 -309 20 -428 23 -854 21 -272 -1 -668 -8 -880 -16
-333 -13 -387 -13 -400 -1 -13 12 -15 60 -16 292 -1 152 -5 742 -9 1311 -3
569 -3 1051 0 1070 l7 36 19 -60 c11 -33 42 -136 70 -230z"/>
<path d="M2854 7286 c-9 -39 119 -321 162 -355 61 -48 96 6 56 86 -11 21 -21
47 -23 58 -5 31 10 77 22 69 6 -3 35 -44 64 -89 75 -116 135 -159 135 -97 0
38 -59 157 -106 214 -46 56 -93 70 -145 44 -18 -9 -33 -16 -35 -16 -1 0 -14
20 -28 45 -39 66 -90 87 -102 41z"/>
<path d="M9548 7201 c-13 -11 -30 -37 -36 -58 -16 -52 -48 -79 -101 -86 -47
-6 -61 -18 -61 -54 0 -19 5 -23 33 -23 50 0 61 -12 61 -69 1 -33 7 -56 18 -67
15 -15 19 -13 53 35 44 60 60 71 112 71 37 0 83 22 83 39 0 5 -27 19 -60 31
-64 24 -65 26 -39 98 13 35 11 69 -7 86 -20 20 -26 20 -56 -3z"/>
<path d="M12070 6799 c-195 -12 -617 -27 -1345 -49 -368 -11 -942 -29 -1275
-40 -333 -11 -884 -26 -1225 -35 -885 -22 -1178 -32 -1198 -40 -35 -14 -32
-51 11 -118 51 -80 422 -822 562 -1125 60 -127 121 -252 138 -277 16 -24 53
-97 82 -162 29 -65 58 -125 65 -133 6 -8 29 -49 50 -90 50 -99 81 -140 107
-140 11 0 59 16 107 35 82 32 3456 1710 3871 1924 107 56 229 115 270 133 70
30 110 58 110 79 0 5 -9 18 -20 29 -22 22 -73 24 -310 9z m60 -96 c0 -5 -114
-63 -252 -131 -280 -136 -263 -134 -289 -44 -15 54 -6 119 20 146 23 22 20 22
449 34 39 1 72 -1 72 -5z m-654 -100 c-1 -87 3 -102 52 -195 5 -11 -2523
-1264 -3320 -1646 l-148 -71 -367 732 c-203 402 -369 734 -370 737 -1 3 20 20
48 39 99 68 184 183 224 307 l16 51 157 7 c159 7 895 31 2597 86 517 17 954
32 970 33 17 2 55 5 86 5 l55 2 0 -87z m-3956 -72 c0 -70 -167 -301 -218 -301
-31 0 -28 11 14 51 54 51 88 106 120 191 26 71 31 78 57 78 20 0 27 -5 27 -19z
m-170 -4 c0 -61 -85 -207 -111 -191 -16 10 -100 184 -94 194 4 6 51 10 106 10
75 0 99 -3 99 -13z"/>
<path d="M3293 6605 c-42 -30 -44 -66 -33 -577 5 -266 14 -584 20 -708 5 -124
21 -553 35 -955 14 -401 32 -917 40 -1145 9 -228 20 -599 26 -825 16 -641 18
-653 99 -761 34 -45 54 -59 152 -107 62 -31 137 -61 167 -68 137 -30 778 44
1120 131 152 38 456 147 586 210 101 49 530 302 662 391 91 62 155 115 378
314 274 244 302 272 384 382 141 189 179 275 180 409 2 117 -28 164 -186 299
-211 180 -1117 958 -1253 1075 -95 83 -540 462 -650 555 -53 44 -165 139 -250
212 -446 379 -1203 1017 -1270 1070 -76 59 -159 113 -175 113 -6 0 -20 -7 -32
-15z m465 -478 c163 -139 549 -466 857 -727 308 -261 614 -520 680 -576 430
-365 1397 -1184 1430 -1211 21 -18 37 -35 34 -38 -3 -3 -41 5 -85 17 -70 19
-104 22 -289 22 -173 0 -232 -4 -335 -22 -478 -85 -827 -196 -1215 -387 -565
-278 -992 -594 -1245 -923 -30 -39 -60 -72 -66 -72 -12 0 -17 116 -34 735 -20
761 -31 1119 -45 1575 -8 256 -22 702 -30 992 -9 290 -19 566 -24 615 -4 48
-5 92 -1 96 4 5 36 -28 70 -72 79 -103 95 -107 66 -19 -14 44 -58 184 -71 226
-3 12 -4 22 0 22 3 0 139 -114 303 -253z m2825 -2622 c109 -16 231 -54 294
-91 61 -35 76 -71 71 -160 -9 -138 -95 -272 -304 -474 -339 -328 -425 -395
-879 -685 -236 -151 -272 -168 -560 -268 -424 -148 -600 -194 -890 -232 -273
-37 -433 -15 -642 87 -91 44 -126 78 -144 138 -28 93 37 271 148 410 88 110
302 305 493 449 161 121 290 200 560 342 451 236 540 273 895 365 116 31 242
64 281 74 65 17 263 45 374 53 112 8 213 6 303 -8z"/>
<path d="M3616 5874 c-19 -50 6 -146 59 -229 37 -57 144 -185 155 -185 11 0
-35 157 -74 248 -39 92 -65 133 -105 162 -25 17 -30 18 -35 4z"/>
<path d="M3906 5303 c-20 -20 14 -136 54 -185 15 -18 42 -42 60 -52 l33 -19
-7 54 c-9 68 -40 140 -74 171 -30 27 -57 40 -66 31z"/>
<path d="M4217 4733 c-22 -21 24 -123 84 -187 37 -41 69 -59 69 -39 0 17 -75
200 -88 216 -15 17 -53 23 -65 10z"/>
<path d="M4507 4188 c10 -72 42 -146 94 -211 65 -81 73 -83 64 -16 -17 130
-96 269 -153 269 -6 0 -8 -18 -5 -42z"/>
<path d="M4772 3648 c4 -43 16 -86 36 -129 29 -61 95 -149 111 -149 25 0 -39
190 -93 273 -51 82 -60 82 -54 5z"/>
<path d="M6597 3254 c-60 -19 -150 -100 -127 -114 26 -17 118 -11 159 9 36 19
121 98 121 113 0 13 -102 8 -153 -8z"/>
<path d="M5016 3043 c16 -72 38 -125 71 -168 19 -26 37 -44 40 -42 2 3 -3 33
-12 68 -19 74 -57 144 -86 159 -18 10 -19 9 -13 -17z"/>
<path d="M6037 3006 c-123 -33 -151 -163 -30 -135 42 9 183 116 183 138 0 15
-93 13 -153 -3z"/>
<path d="M5604 2775 c-92 -20 -156 -51 -204 -100 l-43 -44 27 -11 c46 -17 90
-11 152 20 54 27 174 126 174 143 0 10 -36 7 -106 -8z"/>
<path d="M5148 2613 c-26 -4 -28 -8 -28 -52 0 -54 11 -68 58 -77 26 -5 36 -1
62 24 35 36 37 50 9 86 -20 26 -36 29 -101 19z"/>
<path d="M7100 5677 c-66 -43 -100 -138 -100 -277 0 -100 23 -193 75 -300 19
-41 35 -82 35 -92 0 -25 158 -72 226 -66 97 8 153 78 154 191 0 116 -42 163
-138 155 l-57 -6 0 132 c0 153 -13 206 -60 253 -40 40 -86 44 -135 10z m93
-121 c39 -75 32 -214 -18 -333 l-16 -38 -14 25 c-26 45 -48 169 -43 234 6 69
41 160 60 154 6 -2 20 -21 31 -42z m202 -400 c19 -45 10 -91 -23 -116 -31 -25
-58 -25 -99 0 -84 51 -33 147 80 149 23 1 31 -6 42 -33z"/>
<path d="M10100 5409 c-100 -19 -165 -99 -164 -199 1 -97 51 -160 134 -168 62
-6 102 10 140 57 30 35 31 36 98 33 61 -3 72 -1 99 22 31 26 53 86 53 142 0
26 0 26 -40 -15 -31 -32 -47 -41 -73 -41 -41 0 -59 18 -87 90 -36 93 -52 100
-160 79z m53 -126 c22 -63 21 -95 -4 -127 -23 -29 -69 -35 -88 -12 -21 25 -24
81 -7 114 15 28 60 72 75 72 4 0 15 -21 24 -47z"/>
<path d="M11534 4905 c-57 -57 -83 -164 -45 -185 28 -14 27 -15 63 45 18 30
36 55 40 55 5 0 8 -26 8 -57 0 -60 20 -161 41 -207 29 -64 127 -10 188 104 18
34 31 63 28 66 -2 2 -36 -9 -75 -26 -39 -16 -73 -30 -76 -30 -4 0 -6 28 -6 63
-1 82 -16 147 -42 175 -30 32 -91 30 -124 -3z"/>
<path d="M11395 4496 c-9 -13 -21 -51 -27 -85 l-12 -62 -70 6 c-85 7 -104 -2
-91 -42 8 -21 27 -36 80 -62 l71 -33 11 -80 c11 -87 28 -114 62 -103 27 8 39
31 54 107 l13 63 77 20 c42 11 77 25 77 31 0 6 -33 26 -74 44 l-73 32 -6 80
c-3 43 -11 85 -17 93 -19 23 -57 18 -75 -9z"/>
<path d="M10975 4121 c-98 -24 -301 -169 -317 -226 -20 -76 37 -89 118 -28
169 128 244 205 244 252 0 12 -2 12 -45 2z"/>
<path d="M7325 4043 c-64 -16 -175 -66 -180 -82 -6 -21 64 -229 105 -312 36
-71 65 -99 102 -99 34 0 35 12 8 98 -11 35 -20 68 -20 72 0 12 70 31 84 23 6
-4 31 -24 56 -44 44 -37 142 -89 168 -89 34 0 -12 94 -80 165 l-54 55 3 58 c8
118 -73 184 -192 155z m89 -99 c20 -19 20 -28 1 -63 -11 -23 -86 -71 -110 -71
-6 0 -55 96 -55 108 0 10 92 40 127 41 12 1 29 -6 37 -15z"/>
<path d="M10915 3923 c-156 -94 -171 -105 -192 -147 -14 -27 -14 -31 3 -43 28
-20 65 -15 121 17 57 33 110 83 153 145 31 46 63 106 58 110 -2 1 -66 -36
-143 -82z"/>
<path d="M10135 3868 c-55 -56 -77 -133 -50 -174 14 -22 22 -25 51 -21 33 6
34 5 34 -26 0 -48 54 -155 85 -169 34 -15 54 -3 77 44 9 20 36 52 60 72 53 46
67 70 68 118 l0 37 -76 -35 c-41 -19 -79 -34 -85 -34 -5 0 -9 23 -9 51 0 106
-38 179 -93 179 -11 0 -39 -19 -62 -42z"/>
<path d="M9699 3668 c-59 -46 -82 -95 -87 -187 -7 -130 35 -271 119 -403 28
-43 37 -49 112 -75 187 -63 322 -19 367 121 14 44 7 118 -17 177 -32 80 -112
114 -204 86 l-46 -14 -6 77 c-7 84 -16 113 -60 177 -52 79 -111 92 -178 41z
m97 -115 c21 -42 26 -183 11 -257 l-9 -40 -18 30 c-47 73 -60 209 -28 279 15
34 23 32 44 -12z m270 -301 c17 -11 34 -48 34 -75 0 -67 -87 -97 -174 -59 -25
12 -46 25 -46 30 0 5 15 25 33 46 41 47 123 78 153 58z"/>
<path d="M9357 2760 l-59 -42 -38 17 c-21 9 -43 14 -49 11 -6 -4 -10 -31 -8
-60 2 -50 -1 -56 -39 -98 -56 -61 -69 -85 -53 -104 17 -21 28 -18 93 25 l59
40 49 -25 c53 -27 74 -25 58 6 -5 10 -10 36 -10 56 0 32 7 44 50 84 44 40 80
103 68 115 -2 3 -18 7 -34 11 -23 4 -40 -3 -87 -36z"/>
<path d="M8570 2663 c-26 -10 -61 -47 -81 -85 -27 -53 -25 -99 6 -128 29 -27
26 -28 54 28 13 24 24 42 27 40 2 -3 13 -48 24 -102 22 -106 31 -131 56 -140
45 -17 129 10 172 56 24 26 65 122 56 131 -3 3 -43 -8 -89 -23 l-84 -29 -5 32
c-3 18 -8 55 -12 82 -9 78 -28 114 -68 130 -20 8 -37 15 -38 14 -2 0 -10 -3
-18 -6z"/>
<path d="M8425 2200 c-11 -5 -37 -11 -57 -15 -70 -11 -131 -100 -144 -210 -9
-71 24 -181 69 -231 69 -79 176 -86 249 -17 27 26 68 117 68 151 0 14 14 21
61 31 77 16 109 44 109 99 0 36 -17 102 -26 102 -2 0 -20 -18 -40 -40 -59 -65
-86 -56 -154 53 -53 85 -80 101 -135 77z m2 -127 c41 -51 73 -110 73 -135 0
-42 -25 -94 -54 -114 -25 -16 -28 -16 -45 0 -26 23 -54 127 -46 170 7 34 39
96 51 96 4 0 13 -8 21 -17z"/>
</g>
</svg>
