<?xml version="1.0" standalone="no"?>
<!DOCTYPE svg PUBLIC "-//W3C//DTD SVG 20010904//EN"
 "http://www.w3.org/TR/2001/REC-SVG-20010904/DTD/svg10.dtd">
<svg version="1.0" xmlns="http://www.w3.org/2000/svg"
 width="920.000000pt" height="844.000000pt" viewBox="0 0 920.000000 844.000000"
 preserveAspectRatio="xMidYMid meet">

<g transform="translate(0.000000,844.000000) scale(0.100000,-0.100000)"
fill="#000000" stroke="none">
<path d="M4560 8154 c-6 -14 -12 -42 -15 -64 -2 -21 -11 -78 -20 -125 -20
-117 -20 -377 1 -509 17 -107 32 -138 58 -117 23 19 27 57 11 104 -25 73 -37
271 -25 394 16 157 19 183 30 239 16 78 -16 142 -40 78z"/>
<path d="M4445 7153 c-223 -48 -372 -95 -555 -175 -666 -291 -1029 -680 -1190
-1273 -36 -133 -75 -347 -90 -490 -14 -137 -11 -491 5 -585 8 -47 17 -103 21
-125 23 -138 116 -391 201 -547 54 -97 178 -298 234 -380 11 -15 19 -37 19
-48 0 -11 7 -23 15 -27 19 -7 72 -88 127 -193 22 -41 49 -93 61 -115 32 -58
82 -188 107 -280 21 -73 23 -113 30 -455 9 -414 16 -472 79 -606 33 -70 100
-143 151 -164 l28 -11 -5 -83 c-5 -65 -2 -90 12 -119 16 -35 16 -38 -3 -79
-12 -24 -24 -56 -27 -73 -4 -16 -13 -43 -20 -60 -29 -64 -37 -122 -26 -172 9
-45 9 -49 -14 -66 -47 -35 -23 -95 49 -128 22 -10 50 -19 61 -19 13 0 27 -13
40 -37 48 -91 206 -228 340 -295 196 -100 497 -143 819 -118 88 6 219 13 290
14 144 3 193 15 346 81 233 100 342 207 316 311 -6 24 -10 25 -46 19 -33 -6
-40 -4 -40 10 0 25 40 244 56 309 8 32 13 61 10 64 -3 2 -8 -1 -10 -9 -9 -28
-36 -155 -41 -194 -3 -22 -10 -65 -15 -95 -21 -122 -23 -112 29 -108 41 2 46
0 49 -20 5 -35 -42 -106 -97 -146 -54 -40 -222 -123 -316 -156 -72 -25 -147
-41 -139 -29 3 5 14 9 26 9 11 0 58 19 104 42 101 50 186 132 234 228 28 56
34 79 38 157 5 98 -5 129 -38 120 -9 -2 -28 2 -41 9 -13 7 -40 14 -59 14 l-35
1 22 18 c12 10 19 21 16 25 -4 3 -1 6 5 6 6 0 27 15 46 33 24 23 36 46 41 77
9 53 17 65 67 96 36 23 38 27 38 73 0 39 -6 56 -26 81 -25 29 -26 33 -15 77 7
25 9 59 6 75 -5 22 -2 35 13 51 11 12 36 54 55 92 80 159 97 249 106 585 9
298 20 372 84 565 50 152 128 305 224 442 42 60 79 110 83 113 11 9 125 164
177 240 263 391 401 825 405 1281 3 310 -35 469 -207 854 -61 137 -129 253
-207 349 -90 113 -135 165 -230 267 -59 64 -108 118 -108 121 0 2 14 3 30 0
47 -7 35 4 -24 23 -32 10 -73 34 -102 59 -27 24 -80 63 -119 88 -66 43 -213
128 -220 128 -2 0 -32 13 -67 29 -35 15 -85 37 -113 48 -27 12 -63 26 -80 33
-88 36 -406 126 -476 134 -13 2 -62 11 -108 20 -78 15 -350 21 -406 9z m388
-239 c11 -6 -1 -9 -41 -10 -68 -1 -279 -29 -377 -50 -243 -52 -463 -157 -681
-326 -243 -188 -599 -580 -721 -793 -14 -25 -23 -33 -23 -22 0 11 -5 15 -11
11 -6 -3 -9 -17 -6 -30 2 -13 1 -25 -3 -26 -4 -2 -10 -16 -14 -33 -6 -28 -5
-29 9 -11 8 11 15 24 15 29 0 5 20 34 44 65 23 31 51 71 60 87 56 102 233 311
397 470 435 421 722 554 1294 601 143 11 200 13 230 4 22 -6 50 -12 62 -15 31
-5 123 -33 223 -67 47 -16 99 -33 115 -38 115 -32 343 -147 505 -253 139 -92
434 -409 577 -620 60 -88 143 -257 143 -290 0 -8 8 -44 17 -79 26 -93 25 -495
0 -623 -37 -186 -81 -347 -157 -576 -167 -500 -215 -596 -429 -848 -196 -230
-261 -344 -305 -532 -25 -106 -28 -134 -46 -414 -16 -260 -27 -344 -55 -450
-30 -114 -79 -225 -100 -225 -7 0 -47 7 -87 16 -84 19 -376 26 -528 13 -52 -4
-96 -6 -99 -3 -8 8 -8 1018 0 1156 18 322 55 616 89 703 7 17 14 39 16 50 2
11 27 66 54 122 69 137 166 243 337 368 54 40 64 44 88 35 35 -13 160 -13 227
1 120 24 243 78 285 124 32 35 39 98 16 137 -22 37 -60 51 -123 42 -49 -7
-225 -95 -351 -175 -72 -46 -109 -60 -109 -40 0 4 22 21 48 38 78 48 102 125
63 202 -23 44 -85 77 -125 67 -88 -22 -140 -144 -105 -245 13 -38 13 -39 -31
-47 -31 -7 -33 -6 -26 17 27 90 14 162 -37 205 -41 34 -101 29 -133 -11 -54
-67 -51 -154 7 -220 l30 -34 -23 -6 c-14 -4 -47 -5 -74 -3 -57 3 -56 2 -20
103 29 81 31 113 12 160 -12 29 -20 35 -44 35 -61 0 -121 -83 -122 -165 0 -22
11 -64 25 -93 l24 -53 -32 -19 c-50 -31 -89 -35 -132 -13 l-37 19 36 25 c20
13 48 40 61 60 45 64 43 182 -4 240 -17 21 -21 22 -36 9 -24 -20 -78 -107 -98
-158 -9 -23 -17 -62 -17 -87 0 -43 -1 -44 -37 -52 -61 -13 -144 -8 -200 11
-29 10 -53 22 -53 26 0 5 16 13 35 19 105 29 154 132 109 227 -19 39 -76 74
-122 74 -72 0 -142 -91 -142 -183 l0 -49 -52 47 c-109 98 -221 152 -348 169
-93 13 -240 -34 -301 -95 -36 -36 -39 -44 -39 -91 1 -57 8 -72 57 -106 78 -55
456 -83 628 -47 l80 17 25 -31 c91 -108 197 -356 215 -501 27 -227 31 -491 15
-1145 -12 -530 -19 -738 -27 -809 l-6 -59 -286 7 c-157 3 -311 9 -342 12 l-57
6 -6 62 c-4 33 -13 102 -21 151 -7 50 -23 160 -35 245 -11 85 -27 198 -35 250
-8 52 -17 118 -19 145 -3 28 -15 97 -25 155 -17 89 -32 145 -78 295 -12 36
-108 218 -168 315 -240 391 -353 630 -448 950 -65 216 -72 266 -72 480 0 215
-1 210 82 508 26 89 43 166 39 169 -10 11 -27 -19 -22 -39 2 -10 -1 -18 -7
-18 -7 0 -27 -35 -46 -76 -98 -223 -148 -448 -152 -679 -2 -104 -2 -106 -9
-45 -19 167 1 495 40 644 11 44 20 90 20 103 0 25 29 140 56 220 48 144 171
361 259 458 20 22 34 34 30 28 -3 -7 -13 -39 -21 -70 -19 -72 -33 -120 -73
-253 -34 -116 -35 -120 -22 -120 4 0 11 15 14 33 4 17 16 64 27 102 33 115 59
206 79 280 18 64 26 76 88 135 155 149 365 289 605 404 248 120 390 169 603
210 87 17 388 17 418 0z m1878 -1494 c52 -148 62 -216 62 -415 -1 -138 -5
-210 -17 -265 -9 -41 -19 -91 -22 -110 -3 -19 -8 -38 -10 -42 -2 -3 -16 -46
-29 -93 -31 -107 -90 -248 -157 -375 -51 -98 -176 -289 -229 -350 l-30 -35 35
72 c20 40 36 75 36 79 0 3 6 20 14 37 75 171 246 706 271 849 3 16 12 56 19
90 28 123 41 366 27 506 -7 70 -15 138 -17 152 -6 33 21 -24 47 -100z m-3821
-1 c-122 -424 -117 -660 26 -1087 96 -289 205 -511 414 -852 212 -346 226
-394 330 -1180 12 -85 27 -198 35 -250 8 -52 16 -116 19 -143 l6 -47 -28 14
c-52 28 -101 84 -128 147 l-27 64 -8 355 c-5 195 -12 391 -18 435 -21 180
-108 425 -218 615 -61 107 -88 151 -122 205 -224 357 -250 401 -312 525 -56
114 -100 235 -114 318 -30 173 -14 428 41 642 23 89 123 355 130 347 2 -2 -10
-50 -26 -108z m1508 -793 c33 -33 34 -34 18 -64 -11 -22 -35 -40 -80 -61 -88
-42 -113 -41 -133 7 -15 35 -14 39 8 82 45 85 124 100 187 36z m-489 -15 c108
-44 248 -148 227 -168 -4 -5 -102 -9 -218 -11 -165 -3 -227 0 -291 13 -86 17
-160 45 -172 64 -13 22 24 59 96 95 69 35 76 36 179 36 96 0 116 -3 179 -29z
m1521 14 c34 -18 47 -53 31 -84 -6 -11 -44 -38 -83 -60 l-72 -40 -18 27 c-10
15 -18 44 -18 66 0 30 7 45 34 72 38 38 77 44 126 19z m-690 -84 c0 -47 -36
-100 -89 -129 l-41 -23 0 23 c0 42 19 92 56 146 35 50 38 52 55 36 12 -11 19
-31 19 -53z m198 29 c4 -34 -51 -165 -69 -165 -8 0 -22 17 -33 38 -16 33 -17
45 -7 77 21 70 102 107 109 50z m201 15 c55 -28 60 -84 13 -144 -24 -30 -64
-23 -108 18 -26 24 -30 34 -26 66 3 28 12 41 36 56 37 23 49 23 85 4z m787
-49 c19 -14 18 -15 -6 -42 -53 -58 -273 -134 -387 -134 -29 0 -53 3 -53 8 0 4
24 20 53 36 253 138 269 145 333 146 22 0 49 -6 60 -14z m-605 -177 c18 -9 14
-14 -43 -56 -290 -210 -415 -493 -448 -1018 -5 -77 -14 -212 -20 -300 -11
-173 -12 -846 -1 -1012 l6 -102 -60 -6 c-33 -3 -116 -7 -185 -8 l-125 -2 0 55
c0 30 7 161 15 290 11 169 15 429 15 925 0 638 -1 696 -19 775 -31 144 -64
242 -111 335 -25 50 -45 90 -45 91 0 1 34 -6 75 -14 63 -14 85 -14 149 -3 l75
12 33 -36 c56 -61 146 -59 217 5 l33 30 45 -15 c54 -18 124 -8 181 25 19 12
53 20 80 21 26 1 58 5 72 9 35 11 39 11 61 -1z m760 -911 c-99 -151 -229 -498
-246 -658 -2 -19 -9 -69 -15 -110 -7 -41 -15 -190 -20 -330 -8 -280 -15 -319
-78 -417 -48 -74 -82 -103 -115 -96 -16 3 -26 11 -23 17 3 6 21 47 40 91 57
129 74 228 96 555 33 499 64 594 275 864 50 64 94 115 98 116 5 0 -1 -15 -12
-32z m-566 -1837 c22 -5 56 -13 75 -16 44 -8 50 -14 43 -46 l-5 -26 -76 18
c-43 11 -93 21 -112 23 -19 3 -68 12 -108 20 -40 9 -88 16 -105 16 -18 1 -61
7 -97 15 -62 13 -55 14 140 10 113 -2 223 -8 245 -14z m-835 -51 c159 -9 343
-29 510 -57 52 -9 107 -16 121 -18 38 -3 206 -35 268 -52 l55 -15 -55 -20
c-72 -26 -77 -26 -234 5 -352 72 -839 101 -1140 69 -60 -7 -139 -14 -175 -17
-36 -3 -82 -8 -102 -11 -30 -5 -38 -3 -38 10 0 31 -23 65 -57 83 l-34 18 68 6
c111 9 646 9 813 -1z m317 -125 c56 -8 127 -17 157 -20 30 -3 83 -11 118 -19
35 -7 96 -19 136 -27 137 -24 54 -31 -236 -19 -749 29 -1113 24 -1278 -21 -85
-23 -84 -23 -84 -3 0 8 16 22 35 30 21 9 37 23 41 38 5 22 14 24 142 40 182
22 246 24 582 20 177 -3 324 -10 387 -19z m-129 -172 c131 -7 128 -18 -8 -27
-52 -3 -140 -11 -195 -16 -135 -13 -355 -12 -511 1 -71 6 -146 11 -167 11 -56
1 -38 9 55 23 91 14 631 20 826 8z m702 -65 c-60 -50 -125 -70 -253 -75 -81
-4 -138 -11 -169 -23 -43 -16 -72 -17 -260 -12 -311 8 -913 8 -984 0 l-62 -7
-4 35 c-4 35 -4 36 26 29 57 -12 420 -35 556 -35 275 0 679 43 802 85 65 22
89 24 223 24 l150 0 -25 -21z m-1759 -46 c7 -8 23 -72 17 -72 -15 1 -104 32
-115 41 -11 10 -11 15 2 29 12 13 26 16 53 13 20 -3 40 -8 43 -11z m484 -163
c-225 -12 -405 -15 -405 -7 0 9 112 14 355 14 l190 1 -140 -8z m887 -28 c4
-11 230 -30 375 -32 l113 -1 -6 -27 c-13 -57 -60 -134 -112 -182 -55 -51 -167
-116 -216 -125 -14 -2 -37 -9 -52 -14 -33 -13 -217 -37 -344 -45 -84 -6 -107
-3 -195 20 -55 15 -118 32 -140 37 -22 5 -109 33 -194 61 l-153 52 -14 40
c-17 52 -62 92 -119 106 -25 6 -45 14 -45 18 0 3 51 7 113 8 141 2 498 30 637
49 58 8 150 20 205 25 55 6 102 13 104 15 8 8 39 4 43 -5z m-1051 -140 c57
-22 90 -50 102 -83 10 -28 -2 -22 -45 23 -45 46 -108 77 -169 81 -83 6 -56
-20 103 -96 176 -85 409 -168 566 -201 58 -12 34 -20 -50 -17 -308 12 -586
114 -744 273 -41 41 -62 69 -52 69 8 0 21 -7 28 -15 16 -19 30 -19 30 0 0 21
106 25 145 4 17 -9 55 -26 86 -38z m11 -45 c21 -11 38 -24 38 -28 0 -11 3 -12
-75 28 -54 28 -62 34 -35 29 19 -4 52 -17 72 -29z"/>
<path d="M4847 6485 c-136 -20 -167 -39 -167 -100 0 -36 25 -76 63 -101 72
-47 182 -75 452 -115 240 -35 352 -76 463 -168 162 -135 313 -419 381 -717 25
-110 42 -151 77 -193 65 -77 165 -82 207 -11 19 31 23 95 6 105 -7 5 -8 -4 -4
-27 13 -67 -58 -117 -129 -93 -81 28 -111 80 -161 284 -64 260 -178 481 -327
634 -134 138 -233 176 -588 227 -80 12 -168 27 -196 35 -28 8 -57 15 -65 15
-8 0 -38 11 -67 25 -96 45 -131 110 -74 139 58 29 216 49 355 43 179 -7 295
-33 467 -105 444 -186 749 -612 810 -1130 7 -57 15 -101 17 -98 3 3 0 53 -7
113 -39 347 -192 661 -435 891 -132 125 -316 239 -460 285 -27 9 -72 23 -100
32 -70 22 -254 45 -349 44 -45 -1 -121 -7 -169 -14z"/>
<path d="M6189 4907 c-24 -18 -45 -66 -59 -132 -6 -33 -18 -90 -26 -127 -18
-87 -18 -124 3 -158 35 -60 94 -45 132 34 33 71 84 305 63 292 -12 -7 -22 16
-22 49 0 46 -53 71 -91 42z m62 -17 c12 -7 19 -21 19 -40 0 -16 5 -41 12 -55
8 -19 8 -39 -1 -82 -20 -96 -52 -187 -74 -210 -27 -30 -71 -30 -91 -1 -20 28
-20 52 -2 131 8 34 22 96 31 137 18 80 28 99 60 118 25 14 22 14 46 2z"/>
<path d="M1604 6856 c-3 -8 -4 -31 -2 -51 3 -33 8 -40 51 -62 36 -19 464 -172
557 -198 8 -3 49 -16 90 -30 90 -31 120 -25 120 25 0 17 -5 40 -11 52 -10 18
-77 55 -117 63 -9 2 -111 35 -227 73 -482 159 -452 151 -461 128z"/>
<path d="M7845 6809 c-55 -32 -173 -101 -263 -152 -90 -50 -171 -97 -180 -102
-9 -6 -93 -54 -187 -107 -164 -93 -296 -175 -322 -198 -15 -13 -17 -68 -3 -90
8 -13 29 -5 132 47 68 35 218 115 333 179 116 64 235 129 265 146 30 16 62 34
70 39 8 5 74 40 145 79 72 39 138 80 148 91 31 38 17 130 -21 128 -9 0 -62
-27 -117 -60z"/>
<path d="M1837 4345 c-20 -8 -56 -17 -79 -20 -24 -4 -46 -9 -49 -11 -4 -2 -67
-19 -141 -38 -307 -79 -414 -108 -425 -118 -18 -14 -16 -93 1 -107 11 -9 29
-8 77 3 35 9 105 25 154 36 50 12 113 28 140 35 70 19 173 46 194 50 10 2 42
10 71 19 30 9 64 16 77 16 57 0 92 79 57 128 -17 25 -25 26 -77 7z"/>
<path d="M7211 4241 c-23 -42 -6 -101 29 -101 34 0 92 -40 190 -129 188 -172
344 -270 530 -330 l65 -22 19 23 c13 17 17 33 13 62 -6 46 -31 73 -72 80 -52
9 -211 80 -290 129 -89 56 -199 139 -265 202 -72 70 -117 96 -172 102 -29 4
-39 1 -47 -16z"/>
</g>
</svg>
